<svg id="Layer_1" data-name="Layer 1" xmlns="http://www.w3.org/2000/svg" viewBox="0 0 200 200"><defs><style>.cls-1{fill:#fff;}</style></defs><title>icon_twitter</title><path class="cls-1" d="M190,45.41a72.21,72.21,0,0,1-20.74,5.69,36.22,36.22,0,0,0,15.88-20,72.14,72.14,0,0,1-22.93,8.76,36.14,36.14,0,0,0-61.53,32.93,102.53,102.53,0,0,1-74.47-37.7A36.16,36.16,0,0,0,37.38,83.3,36.06,36.06,0,0,1,21,78.78v.45a36.13,36.13,0,0,0,29,35.41,36.11,36.11,0,0,1-16.31.62,36.14,36.14,0,0,0,33.73,25.08A73,73,0,0,1,14,155.3a102.2,102.2,0,0,0,55.35,16.22c66.42,0,102.74-55,102.74-102.74,0-1.57,0-3.12-.1-4.67A73.44,73.44,0,0,0,190,45.41Z"/></svg>