<svg id="Layer_1" data-name="Layer 1" xmlns="http://www.w3.org/2000/svg" viewBox="0 0 200 200"><defs><style>.cls-1{fill:#fff;fill-rule:evenodd;}</style></defs><title>icon_github</title><path class="cls-1" d="M100,17.42a84.68,84.68,0,0,0-26.75,165c4.23.77,5.77-1.84,5.77-4.08,0-2-.07-7.34-.11-14.41-23.55,5.12-28.52-11.35-28.52-11.35-3.85-9.78-9.4-12.38-9.4-12.38-7.69-5.26.58-5.15.58-5.15,8.49.6,13,8.73,13,8.73,7.55,12.94,19.81,9.2,24.64,7,.77-5.47,3-9.2,5.38-11.32C65.74,137.38,46,130.11,46,97.66a32.76,32.76,0,0,1,8.71-22.72c-.87-2.14-3.77-10.75.83-22.41,0,0,7.11-2.27,23.29,8.68a80.24,80.24,0,0,1,42.39,0c16.17-11,23.27-8.68,23.27-8.68,4.61,11.66,1.71,20.27.84,22.41A32.71,32.71,0,0,1,154,97.66c0,32.53-19.8,39.69-38.66,41.79,3,2.61,5.75,7.78,5.75,15.68,0,11.32-.1,20.45-.1,23.23,0,2.26,1.52,4.89,5.82,4.07A84.69,84.69,0,0,0,100,17.42Z"/></svg>