<svg id="Layer_1" data-name="Layer 1" xmlns="http://www.w3.org/2000/svg" viewBox="0 0 200 200"><defs><style>.cls-1{fill:#fff;}</style></defs><title>icon_github</title><path class="cls-1" d="M100,32c22.16,0,24.79.09,33.54.49,8.09.37,12.49,1.72,15.41,2.86a25.49,25.49,0,0,1,9.54,6.21,25.49,25.49,0,0,1,6.21,9.54c1.14,2.92,2.49,7.32,2.86,15.41.4,8.75.49,11.38.49,33.54s-.09,24.79-.49,33.54c-.37,8.09-1.72,12.49-2.86,15.41A27.51,27.51,0,0,1,149,164.7c-2.92,1.14-7.32,2.49-15.41,2.86-8.75.4-11.38.49-33.54.49s-24.79-.09-33.54-.49c-8.09-.37-12.49-1.72-15.41-2.86a25.49,25.49,0,0,1-9.54-6.21A25.49,25.49,0,0,1,35.3,149c-1.14-2.92-2.49-7.32-2.86-15.41C32,124.79,32,122.16,32,100s.09-24.79.49-33.54c.37-8.09,1.72-12.49,2.86-15.41a25.49,25.49,0,0,1,6.21-9.54,25.49,25.49,0,0,1,9.54-6.21c2.92-1.14,7.32-2.49,15.41-2.86C75.21,32,77.84,32,100,32M100,17c-22.54,0-25.37.1-34.22.5s-14.87,1.81-20.15,3.86A42.41,42.41,0,0,0,21.36,45.63c-2.05,5.28-3.46,11.31-3.86,20.15S17,77.46,17,100s.1,25.37.5,34.22,1.81,14.87,3.86,20.15a42.41,42.41,0,0,0,24.27,24.27c5.28,2.05,11.31,3.46,20.15,3.86s11.68.5,34.22.5,25.37-.1,34.22-.5,14.87-1.81,20.15-3.86a42.41,42.41,0,0,0,24.27-24.27c2.05-5.28,3.46-11.31,3.86-20.15s.5-11.68.5-34.22-.1-25.37-.5-34.22-1.81-14.87-3.86-20.15a42.41,42.41,0,0,0-24.27-24.27c-5.28-2.05-11.31-3.46-20.15-3.86S122.54,17,100,17Z"/><path class="cls-1" d="M100,57.38A42.62,42.62,0,1,0,142.62,100,42.62,42.62,0,0,0,100,57.38Zm0,70.29A27.67,27.67,0,1,1,127.67,100,27.67,27.67,0,0,1,100,127.67Z"/><circle class="cls-1" cx="144.31" cy="55.69" r="9.96"/></svg>